<?xml version="1.0" encoding="utf-8"?>
<!-- Generator: Adobe Illustrator 15.0.0, SVG Export Plug-In . SVG Version: 6.00 Build 0)  -->
<!DOCTYPE svg PUBLIC "-//W3C//DTD SVG 1.1//EN" "http://www.w3.org/Graphics/SVG/1.1/DTD/svg11.dtd">
<svg version="1.1" id="图层_1" xmlns="http://www.w3.org/2000/svg" xmlns:xlink="http://www.w3.org/1999/xlink" x="0px" y="0px"
	 width="10px" height="10px" viewBox="0 0 10 10" enable-background="new 0 0 10 10" xml:space="preserve">
<path fill-rule="evenodd" clip-rule="evenodd" d="M2.924,6.976c0,0,1.45-2.778,4.884-5.646c0,0,1.794-1.351,1.96-1.329L10,0.366
	c0,0-1.616,1.264-3.355,3.488c-0.589,0.753-1.27,1.65-1.794,2.49C4.151,7.464,3.688,8.438,3.688,8.438L2.259,9.468
	c0,0-1.041-2.602-1.296-2.891c0,0-0.698-0.83-0.963-0.797c0,0,0.266-0.376,0.997-0.763c0.731-0.388,1.263,0.63,1.362,0.83
	L2.924,6.976z"/>
</svg>
